<svg width="72" height="75" viewBox="0 0 72 75" fill="none" xmlns="http://www.w3.org/2000/svg">
<path d="M0 0.899902H64C68.4183 0.899902 72 4.48162 72 8.8999V74.9999H8C3.58172 74.9999 0 71.4182 0 66.9999V0.899902Z" fill="#F8FAEB"/>
<rect x="23" y="4.8999" width="26" height="25.1" rx="12.55" fill="#E0EBAB"/>
<path d="M29.25 16.9999C28.62 16.9999 28.0875 16.7824 27.6525 16.3474C27.2175 15.9124 27 15.3799 27 14.7499C27 14.1199 27.2175 13.5874 27.6525 13.1524C28.0875 12.7174 28.62 12.4999 29.25 12.4999C29.88 12.4999 30.4125 12.7174 30.8475 13.1524C31.2825 13.5874 31.5 14.1199 31.5 14.7499C31.5 15.3799 31.2825 15.9124 30.8475 16.3474C30.4125 16.7824 29.88 16.9999 29.25 16.9999ZM33.3 13.3999C32.67 13.3999 32.1375 13.1824 31.7025 12.7474C31.2675 12.3124 31.05 11.7799 31.05 11.1499C31.05 10.5199 31.2675 9.9874 31.7025 9.5524C32.1375 9.1174 32.67 8.8999 33.3 8.8999C33.93 8.8999 34.4625 9.1174 34.8975 9.5524C35.3325 9.9874 35.55 10.5199 35.55 11.1499C35.55 11.7799 35.3325 12.3124 34.8975 12.7474C34.4625 13.1824 33.93 13.3999 33.3 13.3999ZM38.7 13.3999C38.07 13.3999 37.5375 13.1824 37.1025 12.7474C36.6675 12.3124 36.45 11.7799 36.45 11.1499C36.45 10.5199 36.6675 9.9874 37.1025 9.5524C37.5375 9.1174 38.07 8.8999 38.7 8.8999C39.33 8.8999 39.8625 9.1174 40.2975 9.5524C40.7325 9.9874 40.95 10.5199 40.95 11.1499C40.95 11.7799 40.7325 12.3124 40.2975 12.7474C39.8625 13.1824 39.33 13.3999 38.7 13.3999ZM42.75 16.9999C42.12 16.9999 41.5875 16.7824 41.1525 16.3474C40.7175 15.9124 40.5 15.3799 40.5 14.7499C40.5 14.1199 40.7175 13.5874 41.1525 13.1524C41.5875 12.7174 42.12 12.4999 42.75 12.4999C43.38 12.4999 43.9125 12.7174 44.3475 13.1524C44.7825 13.5874 45 14.1199 45 14.7499C45 15.3799 44.7825 15.9124 44.3475 16.3474C43.9125 16.7824 43.38 16.9999 42.75 16.9999ZM31.185 25.9999C30.51 25.9999 29.9437 25.7412 29.4862 25.2237C29.0287 24.7062 28.8 24.0949 28.8 23.3899C28.8 22.6099 29.0663 21.9274 29.5987 21.3424C30.1312 20.7574 30.66 20.1799 31.185 19.6099C31.62 19.1449 31.995 18.6387 32.31 18.0912C32.625 17.5437 33 17.0299 33.435 16.5499C33.765 16.1599 34.1475 15.8374 34.5825 15.5824C35.0175 15.3274 35.49 15.1999 36 15.1999C36.51 15.1999 36.9825 15.3199 37.4175 15.5599C37.8525 15.7999 38.235 16.1149 38.565 16.5049C38.985 16.9849 39.3562 17.5024 39.6788 18.0574C40.0013 18.6124 40.38 19.1299 40.815 19.6099C41.34 20.1799 41.8688 20.7574 42.4013 21.3424C42.9338 21.9274 43.2 22.6099 43.2 23.3899C43.2 24.0949 42.9713 24.7062 42.5138 25.2237C42.0563 25.7412 41.49 25.9999 40.815 25.9999C40.005 25.9999 39.2025 25.9324 38.4075 25.7974C37.6125 25.6624 36.81 25.5949 36 25.5949C35.19 25.5949 34.3875 25.6624 33.5925 25.7974C32.7975 25.9324 31.995 25.9999 31.185 25.9999Z" fill="#576B20"/>
<path d="M22.7044 46V36.2H26.5264C27.385 36.2 28.1177 36.3353 28.7244 36.606C29.331 36.8767 29.7977 37.2687 30.1244 37.782C30.451 38.2953 30.6144 38.9067 30.6144 39.616C30.6144 40.3253 30.451 40.9367 30.1244 41.45C29.7977 41.954 29.331 42.346 28.7244 42.626C28.1177 42.8967 27.385 43.032 26.5264 43.032H23.4744L24.1044 42.374V46H22.7044ZM24.1044 42.514L23.4744 41.814H26.4844C27.3804 41.814 28.057 41.6227 28.5144 41.24C28.981 40.8573 29.2144 40.316 29.2144 39.616C29.2144 38.916 28.981 38.3747 28.5144 37.992C28.057 37.6093 27.3804 37.418 26.4844 37.418H23.4744L24.1044 36.718V42.514ZM35.7518 46.084C34.9585 46.084 34.2585 45.9207 33.6518 45.594C33.0545 45.2673 32.5878 44.8193 32.2518 44.25C31.9252 43.6807 31.7618 43.0273 31.7618 42.29C31.7618 41.5527 31.9205 40.8993 32.2378 40.33C32.5645 39.7607 33.0078 39.3173 33.5678 39C34.1372 38.6733 34.7765 38.51 35.4858 38.51C36.2045 38.51 36.8392 38.6687 37.3898 38.986C37.9405 39.3033 38.3698 39.7513 38.6778 40.33C38.9952 40.8993 39.1538 41.5667 39.1538 42.332C39.1538 42.388 39.1492 42.4533 39.1398 42.528C39.1398 42.6027 39.1352 42.6727 39.1258 42.738H32.8118V41.772H38.4258L37.8798 42.108C37.8892 41.632 37.7912 41.2073 37.5858 40.834C37.3805 40.4607 37.0958 40.1713 36.7318 39.966C36.3772 39.7513 35.9618 39.644 35.4858 39.644C35.0192 39.644 34.6038 39.7513 34.2398 39.966C33.8758 40.1713 33.5912 40.4653 33.3858 40.848C33.1805 41.2213 33.0778 41.6507 33.0778 42.136V42.36C33.0778 42.8547 33.1898 43.298 33.4138 43.69C33.6472 44.0727 33.9692 44.3713 34.3798 44.586C34.7905 44.8007 35.2618 44.908 35.7938 44.908C36.2325 44.908 36.6292 44.8333 36.9838 44.684C37.3478 44.5347 37.6652 44.3107 37.9358 44.012L38.6778 44.88C38.3418 45.272 37.9218 45.5707 37.4178 45.776C36.9232 45.9813 36.3678 46.084 35.7518 46.084ZM43.5681 46.084C42.8214 46.084 42.2428 45.8833 41.8321 45.482C41.4214 45.0807 41.2161 44.5067 41.2161 43.76V36.956H42.5601V43.704C42.5601 44.1053 42.6581 44.4133 42.8541 44.628C43.0594 44.8427 43.3488 44.95 43.7221 44.95C44.1421 44.95 44.4921 44.8333 44.7721 44.6L45.1921 45.566C44.9868 45.7433 44.7394 45.874 44.4501 45.958C44.1701 46.042 43.8761 46.084 43.5681 46.084ZM39.9561 39.686V38.58H44.6881V39.686H39.9561ZM46.2043 42.738V41.576H49.9703V42.738H46.2043ZM10.5364 66V57.922C10.5364 57.194 10.7464 56.6153 11.1664 56.186C11.5957 55.7473 12.2024 55.528 12.9864 55.528C13.2757 55.528 13.5511 55.5653 13.8124 55.64C14.0831 55.7053 14.3117 55.8127 14.4984 55.962L14.0924 56.984C13.9524 56.872 13.7937 56.788 13.6164 56.732C13.4391 56.6667 13.2524 56.634 13.0564 56.634C12.6644 56.634 12.3657 56.746 12.1604 56.97C11.9551 57.1847 11.8524 57.5067 11.8524 57.936V58.93L11.8804 59.546V66H10.5364ZM9.27641 59.686V58.58H14.0084V59.686H9.27641ZM15.276 66V58.58H16.564V60.596L16.438 60.092C16.6433 59.5787 16.9886 59.1867 17.474 58.916C17.9593 58.6453 18.5566 58.51 19.266 58.51V59.812C19.21 59.8027 19.154 59.798 19.098 59.798C19.0513 59.798 19.0046 59.798 18.958 59.798C18.2393 59.798 17.67 60.0127 17.25 60.442C16.83 60.8713 16.62 61.492 16.62 62.304V66H15.276ZM20.9224 66V58.58H22.2664V66H20.9224ZM21.5944 57.152C21.3331 57.152 21.1138 57.068 20.9364 56.9C20.7684 56.732 20.6844 56.5267 20.6844 56.284C20.6844 56.032 20.7684 55.822 20.9364 55.654C21.1138 55.486 21.3331 55.402 21.5944 55.402C21.8558 55.402 22.0704 55.486 22.2384 55.654C22.4158 55.8127 22.5044 56.0133 22.5044 56.256C22.5044 56.508 22.4204 56.7227 22.2524 56.9C22.0844 57.068 21.8651 57.152 21.5944 57.152ZM28.1366 66.084C27.3433 66.084 26.6433 65.9207 26.0366 65.594C25.4393 65.2673 24.9726 64.8193 24.6366 64.25C24.3099 63.6807 24.1466 63.0273 24.1466 62.29C24.1466 61.5527 24.3053 60.8993 24.6226 60.33C24.9493 59.7607 25.3926 59.3173 25.9526 59C26.5219 58.6733 27.1613 58.51 27.8706 58.51C28.5893 58.51 29.2239 58.6687 29.7746 58.986C30.3253 59.3033 30.7546 59.7513 31.0626 60.33C31.3799 60.8993 31.5386 61.5667 31.5386 62.332C31.5386 62.388 31.5339 62.4533 31.5246 62.528C31.5246 62.6027 31.5199 62.6727 31.5106 62.738H25.1966V61.772H30.8106L30.2646 62.108C30.2739 61.632 30.1759 61.2073 29.9706 60.834C29.7653 60.4607 29.4806 60.1713 29.1166 59.966C28.7619 59.7513 28.3466 59.644 27.8706 59.644C27.4039 59.644 26.9886 59.7513 26.6246 59.966C26.2606 60.1713 25.9759 60.4653 25.7706 60.848C25.5653 61.2213 25.4626 61.6507 25.4626 62.136V62.36C25.4626 62.8547 25.5746 63.298 25.7986 63.69C26.0319 64.0727 26.3539 64.3713 26.7646 64.586C27.1753 64.8007 27.6466 64.908 28.1786 64.908C28.6173 64.908 29.0139 64.8333 29.3686 64.684C29.7326 64.5347 30.0499 64.3107 30.3206 64.012L31.0626 64.88C30.7266 65.272 30.3066 65.5707 29.8026 65.776C29.3079 65.9813 28.7526 66.084 28.1366 66.084ZM37.3669 58.51C37.9735 58.51 38.5055 58.6267 38.9629 58.86C39.4295 59.0933 39.7935 59.448 40.0549 59.924C40.3162 60.4 40.4469 61.002 40.4469 61.73V66H39.1029V61.884C39.1029 61.1653 38.9255 60.624 38.5709 60.26C38.2255 59.896 37.7355 59.714 37.1009 59.714C36.6249 59.714 36.2095 59.8073 35.8549 59.994C35.5002 60.1807 35.2249 60.456 35.0289 60.82C34.8422 61.184 34.7489 61.6367 34.7489 62.178V66H33.4049V58.58H34.6929V60.582L34.4829 60.05C34.7255 59.5647 35.0989 59.1867 35.6029 58.916C36.1069 58.6453 36.6949 58.51 37.3669 58.51ZM46.0002 66.084C45.2815 66.084 44.6375 65.9253 44.0682 65.608C43.5082 65.2907 43.0648 64.8473 42.7382 64.278C42.4115 63.7087 42.2482 63.046 42.2482 62.29C42.2482 61.534 42.4115 60.876 42.7382 60.316C43.0648 59.7467 43.5082 59.3033 44.0682 58.986C44.6375 58.6687 45.2815 58.51 46.0002 58.51C46.6255 58.51 47.1902 58.65 47.6942 58.93C48.1982 59.21 48.5995 59.63 48.8982 60.19C49.2062 60.75 49.3602 61.45 49.3602 62.29C49.3602 63.13 49.2108 63.83 48.9122 64.39C48.6228 64.95 48.2262 65.3747 47.7222 65.664C47.2182 65.944 46.6442 66.084 46.0002 66.084ZM46.1122 64.908C46.5788 64.908 46.9988 64.8007 47.3722 64.586C47.7548 64.3713 48.0535 64.068 48.2682 63.676C48.4922 63.2747 48.6042 62.8127 48.6042 62.29C48.6042 61.758 48.4922 61.3007 48.2682 60.918C48.0535 60.526 47.7548 60.2227 47.3722 60.008C46.9988 59.7933 46.5788 59.686 46.1122 59.686C45.6362 59.686 45.2115 59.7933 44.8382 60.008C44.4648 60.2227 44.1662 60.526 43.9422 60.918C43.7182 61.3007 43.6062 61.758 43.6062 62.29C43.6062 62.8127 43.7182 63.2747 43.9422 63.676C44.1662 64.068 44.4648 64.3713 44.8382 64.586C45.2115 64.8007 45.6362 64.908 46.1122 64.908ZM48.6462 66V63.998L48.7302 62.276L48.5902 60.554V55.612H49.9342V66H48.6462ZM52.4771 66V55.612H53.8211V66H52.4771ZM56.7093 68.8C56.3546 68.8 56.0093 68.7393 55.6733 68.618C55.3373 68.506 55.0479 68.338 54.8053 68.114L55.3793 67.106C55.5659 67.2833 55.7713 67.4187 55.9953 67.512C56.2193 67.6053 56.4573 67.652 56.7093 67.652C57.0359 67.652 57.3066 67.568 57.5213 67.4C57.7359 67.232 57.9366 66.9333 58.1233 66.504L58.5853 65.482L58.7253 65.314L61.6373 58.58H62.9533L59.3553 66.742C59.1406 67.2647 58.8979 67.6753 58.6273 67.974C58.3659 68.2727 58.0766 68.4827 57.7593 68.604C57.4419 68.7347 57.0919 68.8 56.7093 68.8ZM58.4733 66.238L55.0853 58.58H56.4853L59.3693 65.188L58.4733 66.238Z" fill="#576B20"/>
</svg>
